<?xml version="1.0" encoding="UTF-8"?>
<svg version="1.1" xmlns="http://www.w3.org/2000/svg" width="512" height="512">
<path d="M0 0 C168.96 0 337.92 0 512 0 C512 168.96 512 337.92 512 512 C343.04 512 174.08 512 0 512 C0 343.04 0 174.08 0 0 Z " fill="#55FEFF" transform="translate(0,0)"/>
<path d="M0 0 C40.92 0 81.84 0 124 0 C124 18.15 124 36.3 124 55 C142.15 55 160.3 55 179 55 C179 132.22 179 209.44 179 289 C156.23 289 133.46 289 110 289 C110 252.7 110 216.4 110 179 C78.32 179 46.64 179 14 179 C14 215.3 14 251.6 14 289 C-8.77 289 -31.54 289 -55 289 C-55 211.78 -55 134.56 -55 55 C-36.85 55 -18.7 55 0 55 C0 36.85 0 18.7 0 0 Z " fill="#FE01FF" transform="translate(112,112)"/>
<path d="M0 0 C22.77 0 45.54 0 69 0 C69 95.37 69 190.74 69 289 C46.23 289 23.46 289 0 289 C0 193.63 0 98.26 0 0 Z " fill="#FD01FF" transform="translate(387,112)"/>
<path d="M0 0 C31.68 0 63.36 0 96 0 C96 12.87 96 25.74 96 39 C64.32 39 32.64 39 0 39 C0 26.13 0 13.26 0 0 Z " fill="#55FDFF" transform="translate(126,183)"/>
<path d="M0 0 C0.33 0 0.66 0 1 0 C1 13.53 1 27.06 1 41 C-12.53 41 -26.06 41 -40 41 C-36.77794772 39.38897386 -33.66489916 38.09649079 -30.3125 36.8125 C-16.32964928 30.99481758 -7.86955879 20.70813891 -2 7 C-1.17794005 4.65968578 -0.55034658 2.42152494 0 0 Z " fill="#000000" transform="translate(511,471)"/>
<path d="M0 0 C13.53 0 27.06 0 41 0 C41 13.53 41 27.06 41 41 C39.38897386 37.77794772 38.09649079 34.66489916 36.8125 31.3125 C30.99481758 17.32964928 20.70813891 8.86955879 7 3 C4.65968578 2.17794005 2.42152494 1.55034658 0 1 C0 0.67 0 0.34 0 0 Z " fill="#000000" transform="translate(471,0)"/>
<path d="M0 0 C13.53 0 27.06 0 41 0 C37.77794772 1.61102614 34.66489916 2.90350921 31.3125 4.1875 C17.32964928 10.00518242 8.86955879 20.29186109 3 34 C2.17794005 36.34031422 1.55034658 38.57847506 1 41 C0.67 41 0.34 41 0 41 C0 27.47 0 13.94 0 0 Z " fill="#000000" transform="translate(0,0)"/>
<path d="M0 0 C1.61857992 3.23715984 2.94284144 6.38624531 4.25 9.75 C6.52146149 15.21611931 9.11619238 19.55584203 13 24 C13.71542969 24.88945312 13.71542969 24.88945312 14.4453125 25.796875 C21.17431411 33.43885673 31.33603298 37.47306985 41 40 C41 40.33 41 40.66 41 41 C27.47 41 13.94 41 0 41 C0 27.47 0 13.94 0 0 Z " fill="#000000" transform="translate(0,471)"/>
</svg>
